<svg 
    xmlns="http://www.w3.org/2000/svg" 
    xmlns:xlink="http://www.w3.org/1999/xlink" 
    width="48" zoomAndPan="magnify" viewBox="0 0 42 42" height="56" preserveAspectRatio="xMidYMid meet" version="1.0"><defs><clipPath id="606cdb34f7"><path d="M 6 0.597656 L 35 0.597656 L 35 40 L 6 40 Z M 6 0.597656 " clip-rule="nonzero"/></clipPath><clipPath id="41808e6b55"><path d="M 6 0.597656 L 36 0.597656 L 36 40.15625 L 6 40.15625 Z M 6 0.597656 " clip-rule="nonzero"/></clipPath></defs><g clip-path="url(#606cdb34f7)"><path fill="#0b0b0b" d="M 20.867188 20.046875 C 17.632812 20.046875 15.011719 17.464844 15.011719 14.285156 C 15.011719 11.105469 17.632812 8.527344 20.867188 8.527344 C 24.097656 8.527344 26.71875 11.105469 26.71875 14.285156 C 26.71875 17.464844 24.097656 20.046875 20.867188 20.046875 Z M 34.886719 14.667969 C 34.886719 7.050781 28.609375 0.875 20.867188 0.875 C 13.121094 0.875 6.84375 7.050781 6.84375 14.667969 C 6.84375 14.667969 5.789062 25.839844 20.867188 39.863281 C 36.507812 24.410156 34.886719 14.667969 34.886719 14.667969 " fill-opacity="1" fill-rule="nonzero"/></g><g clip-path="url(#41808e6b55)"><path fill="#231f20" d="M 20.867188 20.046875 L 20.867188 19.773438 C 19.324219 19.773438 17.929688 19.160156 16.921875 18.167969 C 15.910156 17.171875 15.289062 15.800781 15.285156 14.285156 C 15.289062 12.769531 15.910156 11.398438 16.921875 10.40625 C 17.929688 9.410156 19.324219 8.796875 20.867188 8.796875 C 22.40625 8.796875 23.800781 9.410156 24.8125 10.40625 C 25.820312 11.398438 26.445312 12.769531 26.445312 14.285156 C 26.445312 15.800781 25.820312 17.171875 24.8125 18.167969 C 23.800781 19.160156 22.40625 19.773438 20.867188 19.773438 L 20.867188 20.316406 C 24.25 20.316406 26.996094 17.617188 26.996094 14.285156 C 26.996094 10.957031 24.25 8.257812 20.867188 8.257812 C 17.480469 8.257812 14.738281 10.957031 14.738281 14.285156 C 14.738281 17.617188 17.480469 20.316406 20.867188 20.316406 Z M 34.886719 14.667969 L 35.164062 14.667969 C 35.164062 6.898438 28.761719 0.601562 20.867188 0.601562 C 12.96875 0.601562 6.570312 6.898438 6.570312 14.667969 L 6.84375 14.667969 L 6.570312 14.644531 C 6.570312 14.652344 6.550781 14.828125 6.550781 15.160156 C 6.550781 16.339844 6.761719 19.476562 8.632812 23.863281 C 10.503906 28.25 14.039062 33.886719 20.675781 40.058594 C 20.785156 40.160156 20.957031 40.15625 21.0625 40.054688 C 27.558594 33.632812 31.097656 28.1875 33.011719 24 C 34.925781 19.8125 35.210938 16.882812 35.210938 15.507812 C 35.210938 14.941406 35.164062 14.636719 35.160156 14.625 L 34.886719 14.667969 L 35.164062 14.667969 L 34.886719 14.667969 L 34.617188 14.710938 L 34.707031 14.699219 L 34.617188 14.710938 L 34.707031 14.699219 L 34.617188 14.710938 C 34.617188 14.714844 34.660156 14.988281 34.660156 15.507812 C 34.660156 16.808594 34.390625 19.65625 32.507812 23.777344 C 30.628906 27.898438 27.128906 33.289062 20.671875 39.671875 L 20.867188 39.863281 L 21.054688 39.664062 C 14.46875 33.539062 10.980469 27.96875 9.140625 23.65625 C 7.300781 19.339844 7.101562 16.277344 7.101562 15.160156 C 7.101562 15.003906 7.105469 14.882812 7.109375 14.804688 C 7.113281 14.765625 7.113281 14.738281 7.117188 14.71875 L 7.117188 14.667969 C 7.117188 10.933594 8.65625 7.554688 11.144531 5.105469 C 13.632812 2.65625 17.070312 1.144531 20.867188 1.144531 C 24.664062 1.144531 28.097656 2.65625 30.585938 5.105469 C 33.074219 7.554688 34.613281 10.933594 34.613281 14.667969 C 34.613281 14.683594 34.613281 14.695312 34.617188 14.710938 L 34.886719 14.667969 " fill-opacity="1" fill-rule="nonzero"/></g></svg>